<?xml version="1.0" encoding="UTF-8" standalone="no"?>
<!-- Created with Inkscape (http://www.inkscape.org/) -->

<svg
   xmlns:dc="http://purl.org/dc/elements/1.1/"
   xmlns:cc="http://creativecommons.org/ns#"
   xmlns:rdf="http://www.w3.org/1999/02/22-rdf-syntax-ns#"
   xmlns:svg="http://www.w3.org/2000/svg"
   xmlns="http://www.w3.org/2000/svg"
   xmlns:xlink="http://www.w3.org/1999/xlink"
   xmlns:sodipodi="http://sodipodi.sourceforge.net/DTD/sodipodi-0.dtd"
   xmlns:inkscape="http://www.inkscape.org/namespaces/inkscape"
   id="svg2816"
   version="1.1"
   inkscape:version="0.47 r22583"
   width="5208"
   height="4792"
   sodipodi:docname="New document 2">
  <metadata
     id="metadata2822">
    <rdf:RDF>
      <cc:Work
         rdf:about="">
        <dc:format>image/svg+xml</dc:format>
        <dc:type
           rdf:resource="http://purl.org/dc/dcmitype/StillImage" />
        <dc:title></dc:title>
      </cc:Work>
    </rdf:RDF>
  </metadata>
  <defs
     id="defs2820">
    <inkscape:perspective
       sodipodi:type="inkscape:persp3d"
       inkscape:vp_x="0 : 0.5 : 1"
       inkscape:vp_y="0 : 1000 : 0"
       inkscape:vp_z="1 : 0.5 : 1"
       inkscape:persp3d-origin="0.5 : 0.33333333 : 1"
       id="perspective2824" />
    <inkscape:perspective
       id="perspective2837"
       inkscape:persp3d-origin="0.5 : 0.33333333 : 1"
       inkscape:vp_z="1 : 0.5 : 1"
       inkscape:vp_y="0 : 1000 : 0"
       inkscape:vp_x="0 : 0.5 : 1"
       sodipodi:type="inkscape:persp3d" />
    <inkscape:perspective
       id="perspective3172"
       inkscape:persp3d-origin="0.5 : 0.33333333 : 1"
       inkscape:vp_z="1 : 0.5 : 1"
       inkscape:vp_y="0 : 1000 : 0"
       inkscape:vp_x="0 : 0.5 : 1"
       sodipodi:type="inkscape:persp3d" />
    <inkscape:perspective
       id="perspective3368"
       inkscape:persp3d-origin="0.5 : 0.33333333 : 1"
       inkscape:vp_z="1 : 0.5 : 1"
       inkscape:vp_y="0 : 1000 : 0"
       inkscape:vp_x="0 : 0.5 : 1"
       sodipodi:type="inkscape:persp3d" />
    <inkscape:perspective
       id="perspective3464"
       inkscape:persp3d-origin="0.5 : 0.33333333 : 1"
       inkscape:vp_z="1 : 0.5 : 1"
       inkscape:vp_y="0 : 1000 : 0"
       inkscape:vp_x="0 : 0.5 : 1"
       sodipodi:type="inkscape:persp3d" />
    <inkscape:perspective
       id="perspective3578"
       inkscape:persp3d-origin="0.5 : 0.33333333 : 1"
       inkscape:vp_z="1 : 0.5 : 1"
       inkscape:vp_y="0 : 1000 : 0"
       inkscape:vp_x="0 : 0.5 : 1"
       sodipodi:type="inkscape:persp3d" />
    <inkscape:perspective
       id="perspective3669"
       inkscape:persp3d-origin="0.5 : 0.33333333 : 1"
       inkscape:vp_z="1 : 0.5 : 1"
       inkscape:vp_y="0 : 1000 : 0"
       inkscape:vp_x="0 : 0.5 : 1"
       sodipodi:type="inkscape:persp3d" />
    <inkscape:perspective
       id="perspective4506"
       inkscape:persp3d-origin="0.5 : 0.33333333 : 1"
       inkscape:vp_z="1 : 0.5 : 1"
       inkscape:vp_y="0 : 1000 : 0"
       inkscape:vp_x="0 : 0.5 : 1"
       sodipodi:type="inkscape:persp3d" />
    <inkscape:perspective
       id="perspective4506-0"
       inkscape:persp3d-origin="0.5 : 0.33333333 : 1"
       inkscape:vp_z="1 : 0.5 : 1"
       inkscape:vp_y="0 : 1000 : 0"
       inkscape:vp_x="0 : 0.5 : 1"
       sodipodi:type="inkscape:persp3d" />
  </defs>
  <sodipodi:namedview
     pagecolor="#ffffff"
     bordercolor="#666666"
     borderopacity="1"
     objecttolerance="10"
     gridtolerance="10"
     guidetolerance="10"
     inkscape:pageopacity="0"
     inkscape:pageshadow="2"
     inkscape:window-width="1267"
     inkscape:window-height="1040"
     id="namedview2818"
     showgrid="false"
     inkscape:zoom="0.19699499"
     inkscape:cx="1713.3562"
     inkscape:cy="3510.5564"
     inkscape:window-x="340"
     inkscape:window-y="173"
     inkscape:window-maximized="0"
     inkscape:current-layer="layer2" />
  <g
     inkscape:groupmode="layer"
     id="layer1"
     inkscape:label="Layer"
     style="opacity:0.47916667;display:none"
     transform="translate(20.305056,-20.305084)">
    <image
       xlink:href="file:///C:/Users/Sasha/Adobe%20Flash%20Builder%204/ProfMapr/src/Floor%203.jpg"
       width="5208"
       height="4792"
       id="image2826"
       x="-20.305056"
       y="20.305084" />
  </g>
  <g
     inkscape:groupmode="layer"
     id="layer2"
     inkscape:label="Layer#1">
    <path
       style="fill:none;stroke:#000000;stroke-width:4;stroke-miterlimit:4;stroke-opacity:1;stroke-dasharray:none"
       d="m 670.0678,200.5127 -527.93221,0 0,55.83899 -43.148302,0 0,1560.95341 352.800852,0 0,309.6525 -335.0339,0 0,1901.0636 398.48729,0 0,228.4322 355.33898,0 0,-205.589 281.73309,0 0,-2299.5508 68.5296,0 0,-1474.65683 -38.072,0 0,-57.10805 -340.14411,0 0,-126.159436 -172.18219,1.009537 0.7852,106.674439"
       id="path2852"
       sodipodi:nodetypes="ccccccccccccccccccccccc" />
    <path
       style="fill:none;stroke:#000000;stroke-width:4.18487358;stroke-miterlimit:4;stroke-opacity:1;stroke-dasharray:none;display:inline"
       d="m 741.37156,416.97205 100.66255,0 0,-324.113611"
       id="path6246"
       sodipodi:nodetypes="ccc" />
    <path
       style="fill:none;stroke:#000000;stroke-width:4.18487358;stroke-miterlimit:4;stroke-opacity:1;stroke-dasharray:none;display:inline"
       d="m 750.22099,383.65199 0,-226.17274"
       id="path4183" />
    <path
       style="fill:none;stroke:#000000;stroke-width:3.16760945;stroke-miterlimit:4;stroke-opacity:1;stroke-dasharray:none;display:inline"
       d="m 671.84242,370.5114 170.15653,0"
       id="path4185" />
    <path
       style="fill:none;stroke:#000000;stroke-width:3.16760945;stroke-miterlimit:4;stroke-opacity:1;stroke-dasharray:none;display:inline"
       d="m 672.40588,350.82536 170.71987,0"
       id="path4187" />
    <path
       style="fill:none;stroke:#000000;stroke-width:3.16760945;stroke-miterlimit:4;stroke-opacity:1;stroke-dasharray:none;display:inline"
       d="m 672.40588,331.64412 170.15652,0"
       id="path4189" />
    <path
       style="fill:none;stroke:#000000;stroke-width:3.16760945;stroke-miterlimit:4;stroke-opacity:1;stroke-dasharray:none;display:inline"
       d="m 672.40588,310.4438 168.46615,0"
       id="path4191" />
    <path
       style="fill:none;stroke:#000000;stroke-width:3.16760945;stroke-miterlimit:4;stroke-opacity:1;stroke-dasharray:none;display:inline"
       d="m 672.40588,292.77693 169.59307,0"
       id="path4193" />
    <path
       style="fill:none;stroke:#000000;stroke-width:3.16760945;stroke-miterlimit:4;stroke-opacity:1;stroke-dasharray:none;display:inline"
       d="m 672.96934,274.10037 168.46615,0"
       id="path4195" />
    <path
       style="fill:none;stroke:#000000;stroke-width:3.16760945;stroke-miterlimit:4;stroke-opacity:1;stroke-dasharray:none;display:inline"
       d="m 672.40588,255.92872 169.59307,0"
       id="path4197" />
    <path
       style="fill:none;stroke:#000000;stroke-width:3.16760945;stroke-miterlimit:4;stroke-opacity:1;stroke-dasharray:none;display:inline"
       d="m 672.40588,239.77603 169.02961,0"
       id="path4199" />
    <path
       style="fill:none;stroke:#000000;stroke-width:3.16760945;stroke-miterlimit:4;stroke-opacity:1;stroke-dasharray:none;display:inline"
       d="m 671.84242,222.61385 170.15653,0"
       id="path4201" />
    <path
       style="fill:none;stroke:#000000;stroke-width:3.16760945;stroke-miterlimit:4;stroke-opacity:1;stroke-dasharray:none;display:inline"
       d="m 672.40588,205.95648 170.15652,0"
       id="path4203" />
    <path
       style="fill:none;stroke:#000000;stroke-width:3.16760945;stroke-miterlimit:4;stroke-opacity:1;stroke-dasharray:none;display:inline"
       d="m 672.96934,188.28961 168.46615,0"
       id="path4205" />
    <path
       style="fill:none;stroke:#000000;stroke-width:4;stroke-miterlimit:4;stroke-opacity:1;stroke-dasharray:none"
       d="m 842.40275,417.05814 0,68.92896 49.13082,0 0,69.09722"
       id="path3257" />
    <path
       style="fill:none;stroke:#000000;stroke-width:4;stroke-miterlimit:4;stroke-opacity:1;stroke-dasharray:none"
       d="m 1221.3157,626.42495 -383.17544,0 0,275.4915"
       id="path3259" />
    <path
       style="fill:none;stroke:#000000;stroke-width:4;stroke-miterlimit:4;stroke-opacity:1;stroke-dasharray:none"
       d="m 912.62168,1056.2635 0,85.2498 308.69402,0 m 0,-234.21265 -308.69402,0 0,80.76298"
       id="path3261"
       sodipodi:nodetypes="cccccc" />
    <path
       style="fill:none;stroke:#000000;stroke-width:4;stroke-miterlimit:4;stroke-opacity:1;stroke-dasharray:none"
       d="m 821.0903,1147.7949 0,192.0364 398.4307,0"
       id="path3263" />
    <path
       style="fill:none;stroke:#000000;stroke-width:4;stroke-miterlimit:4;stroke-opacity:1;stroke-dasharray:none"
       d="m 820.64162,1340.28 0,109.9274 38.13807,0 87.94191,0 274.5941,0"
       id="path3265" />
    <path
       style="fill:none;stroke:#000000;stroke-width:4;stroke-miterlimit:4;stroke-opacity:1;stroke-dasharray:none"
       d="m 937.74794,1340.7286 0,111.2735"
       id="path3267" />
    <path
       style="fill:none;stroke:#000000;stroke-width:4;stroke-miterlimit:4;stroke-opacity:1;stroke-dasharray:none"
       d="m 956.59263,1506.7414 0,127.4261 264.72307,0"
       id="path3269" />
    <path
       style="fill:none;stroke:#000000;stroke-width:4;stroke-miterlimit:4;stroke-opacity:1;stroke-dasharray:none"
       d="m 936.85057,1752.6198 0,-83.455 286.25993,0"
       id="path3271" />
    <path
       style="fill:none;stroke:#000000;stroke-width:4;stroke-miterlimit:4;stroke-opacity:1;stroke-dasharray:none"
       d="m 950.31107,1865.688 202.80483,0"
       id="path3273" />
    <path
       style="fill:none;stroke:#000000;stroke-width:4;stroke-miterlimit:4;stroke-opacity:1;stroke-dasharray:none"
       d="m 936.85057,2050.5455 215.36793,0"
       id="path3275" />
    <path
       style="fill:none;stroke:#000000;stroke-width:4;stroke-miterlimit:4;stroke-opacity:1;stroke-dasharray:none"
       d="m 933.2611,2108.8743 0,118.4524"
       id="path3277" />
    <path
       style="fill:none;stroke:#000000;stroke-width:4;stroke-miterlimit:4;stroke-opacity:1;stroke-dasharray:none"
       d="m 932.36374,2167.2031 219.85476,0"
       id="path3279" />
    <path
       style="fill:none;stroke:#000000;stroke-width:4;stroke-miterlimit:4;stroke-opacity:1;stroke-dasharray:none"
       d="m 844.42183,2376.2895 0,-73.584 306.00197,0"
       id="path3281" />
    <path
       style="fill:none;stroke:#000000;stroke-width:4;stroke-miterlimit:4;stroke-opacity:1;stroke-dasharray:none"
       d="m 781.60618,2438.2078 0,376.8939 56.53408,0 0,34.9973"
       id="path3283" />
    <path
       style="fill:none;stroke:#000000;stroke-width:4;stroke-miterlimit:4;stroke-opacity:1;stroke-dasharray:none"
       d="m 782.50354,2719.0835 368.81766,0"
       id="path3285" />
    <path
       style="fill:none;stroke:#000000;stroke-width:4;stroke-miterlimit:4;stroke-opacity:1;stroke-dasharray:none"
       d="m 785.19564,3210.8403 0,-279.9783 272.79936,0 0,160.6286 -271.00463,0 365.22813,0"
       id="path3287" />
    <path
       style="fill:none;stroke:#000000;stroke-width:4;stroke-miterlimit:4;stroke-opacity:1;stroke-dasharray:none"
       d="m 827.37186,3271.8612 0,48.4578"
       id="path3289" />
    <path
       style="fill:none;stroke:#000000;stroke-width:4;stroke-miterlimit:4;stroke-opacity:1;stroke-dasharray:none"
       d="m 828.26923,3289.8086 324.84667,0"
       id="path3291" />
    <path
       style="fill:none;stroke:#000000;stroke-width:4;stroke-miterlimit:4;stroke-opacity:1;stroke-dasharray:none"
       d="m 785.19564,3395.6978 0,195.6259 m 0,-382.2781"
       id="path3293"
       sodipodi:nodetypes="ccc" />
    <path
       style="fill:none;stroke:#000000;stroke-width:4;stroke-miterlimit:4;stroke-opacity:1;stroke-dasharray:none"
       d="m 785.19564,3493.5108 367.02286,0"
       id="path3295" />
    <path
       style="fill:none;stroke:#000000;stroke-width:4;stroke-miterlimit:4;stroke-opacity:1;stroke-dasharray:none"
       d="m 832.75606,3645.1657 0,90.634"
       id="path3297" />
    <path
       style="fill:none;stroke:#000000;stroke-width:4;stroke-miterlimit:4;stroke-opacity:1;stroke-dasharray:none"
       d="m 832.75606,3687.3419 321.25724,0"
       id="path3299" />
    <path
       style="fill:none;stroke:#000000;stroke-width:4;stroke-miterlimit:4;stroke-opacity:1;stroke-dasharray:none"
       d="m 807.6298,3772.5917 -53.84198,0 0,197.4206"
       id="path3301" />
    <path
       style="fill:none;stroke:#000000;stroke-width:4;stroke-miterlimit:4;stroke-opacity:1;stroke-dasharray:none"
       d="m 753.78782,3891.0441 397.53338,0"
       id="path3303" />
    <path
       style="fill:none;stroke:#000000;stroke-width:4;stroke-miterlimit:4;stroke-opacity:1;stroke-dasharray:none"
       d="m 613.79865,2193.2268 0,-242.289 -159.73123,0 m 159.73123,1136.066 0,-807.6298 m -101.40241,1748.0698 101.40241,0 0,-681.9985"
       id="path3305"
       sodipodi:nodetypes="cccccccc" />
    <path
       style="fill:none;stroke:#000000;stroke-width:4;stroke-miterlimit:4;stroke-opacity:1;stroke-dasharray:none"
       d="m 217.16268,3164.1773 335.61505,0"
       id="path3307" />
    <path
       style="fill:none;stroke:#000000;stroke-width:4;stroke-miterlimit:4;stroke-opacity:1;stroke-dasharray:none"
       d="m 550.983,3144.4352 0,107.684"
       id="path3309" />
    <path
       style="fill:none;stroke:#000000;stroke-width:4;stroke-miterlimit:4;stroke-opacity:1;stroke-dasharray:none"
       d="m 452.04835,2126.8216 329.55783,0"
       id="path3311" />
    <path
       style="fill:none;stroke:#000000;stroke-width:4;stroke-miterlimit:4;stroke-opacity:1;stroke-dasharray:none"
       d="m 614.24733,1950.9378 162.87201,0"
       id="path3313" />
    <path
       style="fill:none;stroke:#000000;stroke-width:4;stroke-miterlimit:4;stroke-opacity:1;stroke-dasharray:none"
       d="m 671.11794,181.89205 1.9069,291.98061 -34.09993,0"
       id="path3315"
       sodipodi:nodetypes="ccc" />
    <path
       style="fill:none;stroke:#000000;stroke-width:4;stroke-miterlimit:4;stroke-opacity:1;stroke-dasharray:none"
       d="m 673.02484,1670.9595 0,-607.5171 m 0,-92.42873 0,-349.97291 -36.79203,0 0,-34.9973"
       id="path3317"
       sodipodi:nodetypes="cccc" />
    <path
       style="fill:none;stroke:#000000;stroke-width:4;stroke-miterlimit:4;stroke-opacity:1;stroke-dasharray:none"
       d="m 451.37532,1817.2302 334.71769,0"
       id="path3319" />
    <path
       style="fill:none;stroke:#000000;stroke-width:4;stroke-miterlimit:4;stroke-opacity:1;stroke-dasharray:none"
       d="m 658.66697,1815.4355 0,-72.6867 69.99458,0 57.43146,76.2762"
       id="path3321" />
    <path
       style="fill:none;stroke:#000000;stroke-width:4;stroke-miterlimit:4;stroke-opacity:1;stroke-dasharray:none"
       d="m 98.710309,1026.6504 378.688641,0"
       id="path3323" />
    <path
       style="fill:none;stroke:#000000;stroke-width:4;stroke-miterlimit:4;stroke-opacity:1;stroke-dasharray:none"
       d="m 473.80948,940.50321 0,163.32069"
       id="path3325" />
    <path
       style="fill:none;stroke:#000000;stroke-width:4;stroke-miterlimit:4;stroke-opacity:1;stroke-dasharray:none"
       d="m 672.12747,842.69027 -73.58405,0 0,128.3234 75.37878,0"
       id="path3327" />
    <path
       style="fill:none;stroke:#000000;stroke-width:4;stroke-miterlimit:4;stroke-opacity:1;stroke-dasharray:none"
       d="m 671.23011,1066.5832 -73.58405,0 0,128.3234 75.37878,0"
       id="path3327-4" />
    <path
       style="fill:none;stroke:#000000;stroke-width:4;stroke-miterlimit:4;stroke-opacity:1;stroke-dasharray:none"
       d="m 5096.5763,2192.9491 -1781.7712,0 0,-203.0508 -119.2924,0 0,-50.7627 -205.589,0 0,45.6864 -106.6017,0 0,1114.2416 -27.9195,0 -116.7542,0 0,324.8813 116.7542,0 32.3613,0 0,637.072 2231.6557,0 0,-1873.144 -22.8432,5.0762 z"
       id="path3382" />
    <path
       style="fill:none;stroke:#000000;stroke-width:4;stroke-miterlimit:4;stroke-opacity:1;stroke-dasharray:none"
       d="m 4745.0445,2324.9322 0,592.6547 62.1843,0 0,15.3874 m 0,53.7768 0,42.5137 148.481,0 m 40.6101,0 123.7341,0 m -375.0095,-836.3157 0,85.6621"
       id="path3384"
       sodipodi:nodetypes="ccccccccccc" />
    <path
       style="fill:none;stroke:#000000;stroke-width:4;stroke-miterlimit:4;stroke-opacity:1;stroke-dasharray:none"
       d="m 5015.3559,3029.2648 0,-262.697 103.4291,0"
       id="path3386" />
    <path
       style="fill:none;stroke:#000000;stroke-width:4;stroke-miterlimit:4;stroke-opacity:1;stroke-dasharray:none"
       d="m 4808.4979,3028.6303 -139.5975,0"
       id="path3388" />
    <path
       style="fill:none;stroke:#000000;stroke-width:4;stroke-miterlimit:4;stroke-opacity:1;stroke-dasharray:none"
       d="m 4791.3655,3314.1705 328.6885,0 m -420.6959,-286.1747 0,286.1747 48.8591,0"
       id="path3390"
       sodipodi:nodetypes="ccccc" />
    <path
       style="fill:none;stroke:#000000;stroke-width:4;stroke-miterlimit:4;stroke-opacity:1;stroke-dasharray:none"
       d="m 4746.9481,3535.6229 -180.2076,0 0,-78.6822 57.7426,0 46.9555,0 34.8993,0 0,78.0476 m 413.0816,-93.2764 -319.1705,0 0,93.911 -19.0361,0"
       id="path3392"
       sodipodi:nodetypes="ccccccccccc" />
    <path
       style="fill:none;stroke:#000000;stroke-width:4;stroke-miterlimit:4;stroke-opacity:1;stroke-dasharray:none"
       d="m 5017.8941,3442.9809 0,168.1515 102.1599,0"
       id="path3394" />
    <path
       style="fill:none;stroke:#000000;stroke-width:4;stroke-miterlimit:4;stroke-opacity:1;stroke-dasharray:none"
       d="m 4497.5763,3599.0763 0,-140.8666 73.6059,0 m -73.6059,489.8602 0,-284.2712 m 0,398.4873 0,-38.072 0,-33.6303"
       id="path3396"
       sodipodi:nodetypes="cccccccc" />
    <path
       style="fill:none;stroke:#000000;stroke-width:4;stroke-miterlimit:4;stroke-opacity:1;stroke-dasharray:none"
       d="m 4417.625,3516.5869 -19.036,0 0,-56.4736 m 52.6663,56.4736 46.321,0 -31.0922,0"
       id="path3398"
       sodipodi:nodetypes="cccccc" />
    <path
       style="fill:none;stroke:#000000;stroke-width:4;stroke-miterlimit:4;stroke-opacity:1;stroke-dasharray:none"
       d="m 4376.3803,3738.0392 -297.5964,0 0,323.6123 0,-406.1017 m 0,-60.2807 0,-110.4089 320.4396,0 -407.3707,0 0,83.1239 0,-45.0519 -31.7267,0 m 536.8156,215.107 -59.0116,0"
       id="path3400"
       sodipodi:nodetypes="ccccccccccccc" />
    <path
       style="fill:none;stroke:#000000;stroke-width:4;stroke-miterlimit:4;stroke-opacity:1;stroke-dasharray:none"
       d="m 3755.1716,2756.4153 -35.5339,0 0,-417.5234 m 327.7368,417.5234 -238.902,0 m 342.331,0 -66.6261,0 m -364.5397,-467.017 0,-97.7182 m 978.4513,564.7352 -515.2415,0"
       id="path3402"
       sodipodi:nodetypes="ccccccccccc" />
    <path
       style="fill:none;stroke:#000000;stroke-width:4;stroke-miterlimit:4;stroke-opacity:1;stroke-dasharray:none"
       d="m 3312.2669,2756.4152 -163.0752,0 m 510.7998,0 -296.9619,0"
       id="path3404"
       sodipodi:nodetypes="cccc" />
    <path
       style="fill:none;stroke:#000000;stroke-width:4;stroke-miterlimit:4;stroke-opacity:1;stroke-dasharray:none"
       d="m 3133.3284,2396 158.6335,0 m -411.178,0 166.2479,0"
       id="path3406"
       sodipodi:nodetypes="cccc" />
    <path
       style="fill:none;stroke:#000000;stroke-width:4;stroke-miterlimit:4;stroke-opacity:1;stroke-dasharray:none"
       d="m 3291.9619,2348.41 0,409.2743 m 23.4777,-563.4661 0,39.3411 -23.4777,0 0,71.0678"
       id="path3408"
       sodipodi:nodetypes="cccccc" />
    <path
       style="fill:none;stroke:#000000;stroke-width:4;stroke-miterlimit:4;stroke-opacity:1;stroke-dasharray:none"
       d="m 3134.5975,2394.7309 0,265.2352 71.0678,0"
       id="path3410" />
    <path
       style="fill:none;stroke:#000000;stroke-width:4;stroke-miterlimit:4;stroke-opacity:1;stroke-dasharray:none"
       d="m 3078.7585,2574.9386 -93.911,0 m 151.019,0 -20.3051,0"
       id="path3412"
       sodipodi:nodetypes="cccc" />
    <path
       style="fill:none;stroke:#000000;stroke-width:4;stroke-miterlimit:4;stroke-opacity:1;stroke-dasharray:none"
       d="m 3044.4937,2573.6695 0,-178.9386"
       id="path3414" />
    <path
       style="fill:none;stroke:#000000;stroke-width:4;stroke-miterlimit:4;stroke-opacity:1;stroke-dasharray:none"
       d="m 2883.322,2665.0424 164.9789,0"
       id="path3416" />
    <path
       style="fill:none;stroke:#000000;stroke-width:4;stroke-miterlimit:4;stroke-opacity:1;stroke-dasharray:none"
       d="m 3048.3009,2635.8538 0,57.1081"
       id="path3418" />
    <path
       style="fill:none;stroke:#000000;stroke-width:4;stroke-miterlimit:4;stroke-opacity:1;stroke-dasharray:none"
       d="m 2882.053,2761.4915 167.5169,0"
       id="path3420" />
    <path
       style="fill:none;stroke:#000000;stroke-width:4;stroke-miterlimit:4;stroke-opacity:1;stroke-dasharray:none"
       d="m 3049.5699,2776.7203 0,-43.1483"
       id="path3422" />
    <path
       style="fill:none;stroke:#000000;stroke-width:4;stroke-miterlimit:4;stroke-opacity:1;stroke-dasharray:none"
       d="m 3151.0953,2729.7648 0,55.839"
       id="path3424" />
    <path
       style="fill:none;stroke:#000000;stroke-width:4;stroke-miterlimit:4;stroke-opacity:1;stroke-dasharray:none"
       d="m 3152.3644,2831.2903 0,112.947 156.0954,0 0,-185.2839"
       id="path3426" />
    <path
       style="fill:none;stroke:#000000;stroke-width:4;stroke-miterlimit:4;stroke-opacity:1;stroke-dasharray:none"
       d="m 3152.3644,2850.3263 157.3644,0"
       id="path3428" />
    <path
       style="fill:none;stroke:#000000;stroke-width:4;stroke-miterlimit:4;stroke-opacity:1;stroke-dasharray:none"
       d="m 3633.3411,2870.6314 0,-116.7543 m -229.7013,2.5381 0,177.6695 229.7013,0 0,-17.7669"
       id="path3430"
       sodipodi:nodetypes="cccccc" />
    <path
       style="fill:none;stroke:#000000;stroke-width:4;stroke-miterlimit:4;stroke-opacity:1;stroke-dasharray:none"
       d="m 4262.7987,2846.5191 0,79.9512 346.4555,0 0,-65.9915 19.0361,0 30.4576,0 13.9597,0 0,-100.2563 m -409.9089,-5.0763 0,43.1483"
       id="path3432"
       sodipodi:nodetypes="cccccccccc" />
    <path
       style="fill:none;stroke:#000000;stroke-width:4;stroke-miterlimit:4;stroke-opacity:1;stroke-dasharray:none"
       d="m 3896.04,2879.6085 -58.379,1.1754 0,50.7627 189.0911,0 0,-54.5699 -55.8163,1.1238"
       id="path3434"
       sodipodi:nodetypes="cccccc" />
    <path
       style="fill:none;stroke:#000000;stroke-width:4;stroke-miterlimit:4;stroke-opacity:1;stroke-dasharray:none"
       d="m 3896.0381,2879.5148 0,52.0318"
       id="path3436" />
    <path
       style="fill:none;stroke:#000000;stroke-width:4;stroke-miterlimit:4;stroke-opacity:1;stroke-dasharray:none"
       d="m 3972.1822,2879.5148 0,52.0318"
       id="path3438" />
    <path
       style="fill:none;stroke:#000000;stroke-width:4;stroke-miterlimit:4;stroke-opacity:1;stroke-dasharray:none"
       d="m 3918.8814,3522.9322 -15.8634,0 0,-38.7066"
       id="path3440"
       sodipodi:nodetypes="ccc" />
    <path
       style="fill:none;stroke:#000000;stroke-width:4;stroke-miterlimit:4;stroke-opacity:1;stroke-dasharray:none"
       d="m 3594,3642.2246 0,418.7923 m 309.6526,-576.7913 -309.6526,0 0,116.1197"
       id="path3442"
       sodipodi:nodetypes="ccccc" />
    <path
       style="fill:none;stroke:#000000;stroke-width:4;stroke-miterlimit:4;stroke-opacity:1;stroke-dasharray:none"
       d="m 3539.4301,3583.2129 55.2044,0 m -260.1589,41.2447 0,-41.2447 165.6134,0 m -49.4937,477.1695 0,-145.3082 -116.1197,0 0,-239.8539"
       id="path3444"
       sodipodi:nodetypes="ccccccccc" />
    <path
       style="fill:none;stroke:#000000;stroke-width:4;stroke-miterlimit:4;stroke-opacity:1;stroke-dasharray:none"
       d="m 3454.4025,3483.5911 -281.733,0 0,-154.1356"
       id="path3446"
       sodipodi:nodetypes="ccc" />
    <path
       style="fill:none;stroke:#000000;stroke-width:4;stroke-miterlimit:4;stroke-opacity:1;stroke-dasharray:none"
       d="m 3423.9449,3483.5911 0,35.5339"
       id="path3448" />
    <path
       style="fill:none;stroke:#000000;stroke-width:4;stroke-miterlimit:4;stroke-opacity:1;stroke-dasharray:none"
       d="m 4539.4555,3024.1886 -965.7606,0 0,331.2267 967.0297,0"
       id="path3450" />
    <path
       style="fill:none;stroke:#000000;stroke-width:4;stroke-miterlimit:4;stroke-opacity:1;stroke-dasharray:none"
       d="m 3455.6716,3354.1462 0,-25.3814 -364.2224,0 m 364.2224,156.0954 0,-34.2649"
       id="path3452"
       sodipodi:nodetypes="ccccc" />
    <path
       style="fill:none;stroke:#000000;stroke-width:4;stroke-miterlimit:4;stroke-opacity:1;stroke-dasharray:none"
       d="m 3318.6123,3048.3008 -125.6377,0 m -41.8793,0 -269.0423,0 m 519.0487,279.195 0,-279.195 -29.1886,0"
       id="path3454"
       sodipodi:nodetypes="ccccccc" />
    <path
       style="fill:none;stroke:#000000;stroke-width:4;stroke-miterlimit:4;stroke-opacity:1;stroke-dasharray:none;display:inline"
       d="m 3032.0772,3346.1492 -249.2858,0 0,-202.1428 249.2858,-0.7143"
       id="path3960"
       sodipodi:nodetypes="cccc" />
    <path
       style="fill:none;stroke:#000000;stroke-width:4;stroke-miterlimit:4;stroke-opacity:1;stroke-dasharray:none;display:inline"
       d="m 2849.22,3234.7207 172.8572,0 m 0,19.2857 -172.1429,0"
       id="path3962"
       sodipodi:nodetypes="cccc" />
    <path
       style="fill:none;stroke:#000000;stroke-width:3;stroke-miterlimit:4;stroke-opacity:1;stroke-dasharray:none;display:inline"
       d="m 2856.0057,3145.0778 0,88.9286"
       id="path3964" />
    <path
       style="fill:none;stroke:#000000;stroke-width:3;stroke-miterlimit:4;stroke-opacity:1;stroke-dasharray:none;display:inline"
       d="m 2866.3629,3144.3635 0,89.6429"
       id="path3966" />
    <path
       style="fill:none;stroke:#000000;stroke-width:3;stroke-miterlimit:4;stroke-opacity:1;stroke-dasharray:none;display:inline"
       d="m 2880.6486,3144.3635 0,89.6429"
       id="path3968" />
    <path
       style="fill:none;stroke:#000000;stroke-width:3;stroke-miterlimit:4;stroke-opacity:1;stroke-dasharray:none;display:inline"
       d="m 2893.1486,3144.7207 0,89.2857"
       id="path3970" />
    <path
       style="fill:none;stroke:#000000;stroke-width:3;stroke-miterlimit:4;stroke-opacity:1;stroke-dasharray:none;display:inline"
       d="m 2907.7914,3144.7207 0,88.9285"
       id="path3972" />
    <path
       style="fill:none;stroke:#000000;stroke-width:3;stroke-miterlimit:4;stroke-opacity:1;stroke-dasharray:none;display:inline"
       d="m 2921.72,3144.3635 0,89.2857"
       id="path3974" />
    <path
       style="fill:none;stroke:#000000;stroke-width:3;stroke-miterlimit:4;stroke-opacity:1;stroke-dasharray:none;display:inline"
       d="m 2934.22,3144.3635 0,90.3572"
       id="path3976" />
    <path
       style="fill:none;stroke:#000000;stroke-width:3;stroke-miterlimit:4;stroke-opacity:1;stroke-dasharray:none;display:inline"
       d="m 2948.1486,3144.0064 0,90.3571"
       id="path3978" />
    <path
       style="fill:none;stroke:#000000;stroke-width:3;stroke-miterlimit:4;stroke-opacity:1;stroke-dasharray:none;display:inline"
       d="m 2959.9343,3144.3635 0,88.9286"
       id="path3980" />
    <path
       style="fill:none;stroke:#000000;stroke-width:3;stroke-miterlimit:4;stroke-opacity:1;stroke-dasharray:none;display:inline"
       d="m 2973.8629,3144.3635 0,90"
       id="path3982" />
    <path
       style="fill:none;stroke:#000000;stroke-width:3;stroke-miterlimit:4;stroke-opacity:1;stroke-dasharray:none;display:inline"
       d="m 2987.0772,3144.3635 0,90"
       id="path3984" />
    <path
       style="fill:none;stroke:#000000;stroke-width:3;stroke-miterlimit:4;stroke-opacity:1;stroke-dasharray:none;display:inline"
       d="m 3001.3629,3144.3635 0,89.6429"
       id="path3986" />
    <path
       style="fill:none;stroke:#000000;stroke-width:3;stroke-miterlimit:4;stroke-opacity:1;stroke-dasharray:none;display:inline"
       d="m 3016.72,3144.0064 0,90.7143"
       id="path3988" />
    <path
       style="fill:none;stroke:#000000;stroke-width:3;stroke-miterlimit:4;stroke-opacity:1;stroke-dasharray:none;display:inline"
       d="m 2855.2914,3255.0778 0,89.6429"
       id="path3990" />
    <path
       style="fill:none;stroke:#000000;stroke-width:3;stroke-miterlimit:4;stroke-opacity:1;stroke-dasharray:none;display:inline"
       d="m 2867.4343,3255.7921 0,90.3571"
       id="path3992" />
    <path
       style="fill:none;stroke:#000000;stroke-width:3;stroke-miterlimit:4;stroke-opacity:1;stroke-dasharray:none;display:inline"
       d="m 2879.5772,3255.0778 0,90"
       id="path3994" />
    <path
       style="fill:none;stroke:#000000;stroke-width:3;stroke-miterlimit:4;stroke-opacity:1;stroke-dasharray:none;display:inline"
       d="m 2893.8629,3255.435 0,90"
       id="path3996" />
    <path
       style="fill:none;stroke:#000000;stroke-width:3;stroke-miterlimit:4;stroke-opacity:1;stroke-dasharray:none;display:inline"
       d="m 2908.1486,3255.435 0,91.0714"
       id="path3998" />
    <path
       style="fill:none;stroke:#000000;stroke-width:3;stroke-miterlimit:4;stroke-opacity:1;stroke-dasharray:none;display:inline"
       d="m 2921.3629,3255.0778 0,92.1429"
       id="path4000" />
    <path
       style="fill:none;stroke:#000000;stroke-width:3;stroke-miterlimit:4;stroke-opacity:1;stroke-dasharray:none;display:inline"
       d="m 2933.1486,3254.7207 0,91.0714"
       id="path4002" />
    <path
       style="fill:none;stroke:#000000;stroke-width:3;stroke-miterlimit:4;stroke-opacity:1;stroke-dasharray:none;display:inline"
       d="m 2946.3629,3254.7207 0,91.4285"
       id="path4004" />
    <path
       style="fill:none;stroke:#000000;stroke-width:3;stroke-miterlimit:4;stroke-opacity:1;stroke-dasharray:none;display:inline"
       d="m 2958.8629,3254.7207 0,90.7143"
       id="path4006" />
    <path
       style="fill:none;stroke:#000000;stroke-width:3;stroke-miterlimit:4;stroke-opacity:1;stroke-dasharray:none;display:inline"
       d="m 2970.2914,3254.3635 0,91.4286"
       id="path4008" />
    <path
       style="fill:none;stroke:#000000;stroke-width:3;stroke-miterlimit:4;stroke-opacity:1;stroke-dasharray:none;display:inline"
       d="m 2982.7914,3254.7207 0,91.0714"
       id="path4010" />
    <path
       style="fill:none;stroke:#000000;stroke-width:3;stroke-miterlimit:4;stroke-opacity:1;stroke-dasharray:none;display:inline"
       d="m 2996.3629,3255.0778 0,91.0714"
       id="path4012" />
    <path
       style="fill:none;stroke:#000000;stroke-width:3;stroke-miterlimit:4;stroke-opacity:1;stroke-dasharray:none;display:inline"
       d="m 3008.1486,3255.0778 0,91.7857"
       id="path4014" />
    <path
       style="fill:none;stroke:#000000;stroke-width:3;stroke-miterlimit:4;stroke-opacity:1;stroke-dasharray:none;display:inline"
       d="m 3018.1486,3255.435 0,91.0714"
       id="path4016" />
    <path
       style="fill:none;stroke:#000000;stroke-width:4;stroke-miterlimit:4;stroke-opacity:1;stroke-dasharray:none"
       d="m 3029.8994,3346.5318 0,78.0476 -141.5011,0 0,-78.6822"
       id="path3566" />
    <path
       style="fill:none;stroke:#000000;stroke-width:4;stroke-miterlimit:4;stroke-opacity:1;stroke-dasharray:none"
       d="m 2883.322,3099.0636 0,43.4655"
       id="path3568" />
    <path
       style="fill:none;stroke:#000000;stroke-width:4;stroke-miterlimit:4;stroke-opacity:1;stroke-dasharray:none;display:inline"
       d="m 4538.8889,3320.9806 -287.8571,0 m -0.3571,-93.5714 288.2142,0"
       id="path3794"
       sodipodi:nodetypes="cccc" />
    <path
       style="fill:none;stroke:#000000;stroke-width:3;stroke-miterlimit:4;stroke-opacity:1;stroke-dasharray:none;display:inline"
       d="m 4253.1747,3319.1949 0,-91.0714"
       id="path3796" />
    <path
       style="fill:none;stroke:#000000;stroke-width:3;stroke-miterlimit:4;stroke-opacity:1;stroke-dasharray:none;display:inline"
       d="m 4266.0318,3320.6235 0,-92.5"
       id="path3798" />
    <path
       style="fill:none;stroke:#000000;stroke-width:3;stroke-miterlimit:4;stroke-opacity:1;stroke-dasharray:none;display:inline"
       d="m 4279.2461,3320.2663 0,-92.5"
       id="path3800" />
    <path
       style="fill:none;stroke:#000000;stroke-width:3;stroke-miterlimit:4;stroke-opacity:1;stroke-dasharray:none;display:inline"
       d="m 4293.8889,3319.9092 0,-92.1429"
       id="path3802" />
    <path
       style="fill:none;stroke:#000000;stroke-width:3;stroke-miterlimit:4;stroke-opacity:1;stroke-dasharray:none;display:inline"
       d="m 4307.4604,3320.2663 0,-92.1428"
       id="path3804" />
    <path
       style="fill:none;stroke:#000000;stroke-width:3;stroke-miterlimit:4;stroke-opacity:1;stroke-dasharray:none;display:inline"
       d="m 4323.1747,3319.9092 0,-91.7857"
       id="path3806" />
    <path
       style="fill:none;stroke:#000000;stroke-width:3;stroke-miterlimit:4;stroke-opacity:1;stroke-dasharray:none;display:inline"
       d="m 4338.8889,3319.5521 0,-91.4286"
       id="path3808" />
    <path
       style="fill:none;stroke:#000000;stroke-width:3;stroke-miterlimit:4;stroke-opacity:1;stroke-dasharray:none;display:inline"
       d="m 4357.4604,3319.5521 0,-92.8572"
       id="path3810" />
    <path
       style="fill:none;stroke:#000000;stroke-width:3;stroke-miterlimit:4;stroke-opacity:1;stroke-dasharray:none;display:inline"
       d="m 4377.1032,3319.9092 0,-91.7857"
       id="path3812" />
    <path
       style="fill:none;stroke:#000000;stroke-width:3;stroke-miterlimit:4;stroke-opacity:1;stroke-dasharray:none;display:inline"
       d="m 4393.5318,3319.5521 0,-92.1429"
       id="path3814" />
    <path
       style="fill:none;stroke:#000000;stroke-width:3;stroke-miterlimit:4;stroke-opacity:1;stroke-dasharray:none;display:inline"
       d="m 4410.6747,3319.5521 0,-91.0715"
       id="path3816" />
    <path
       style="fill:none;stroke:#000000;stroke-width:3;stroke-miterlimit:4;stroke-opacity:1;stroke-dasharray:none;display:inline"
       d="m 4425.6747,3319.5521 0,-90.7143"
       id="path3818" />
    <path
       style="fill:none;stroke:#000000;stroke-width:3;stroke-miterlimit:4;stroke-opacity:1;stroke-dasharray:none;display:inline"
       d="m 4440.3175,3319.5521 0,-90.3572"
       id="path3820" />
    <path
       style="fill:none;stroke:#000000;stroke-width:3;stroke-miterlimit:4;stroke-opacity:1;stroke-dasharray:none;display:inline"
       d="m 4455.3175,3319.9092 0,-91.7857"
       id="path3822" />
    <path
       style="fill:none;stroke:#000000;stroke-width:3;stroke-miterlimit:4;stroke-opacity:1;stroke-dasharray:none;display:inline"
       d="m 4472.8175,3320.2663 0,-91.7857"
       id="path3824" />
    <path
       style="fill:none;stroke:#000000;stroke-width:3;stroke-miterlimit:4;stroke-opacity:1;stroke-dasharray:none;display:inline"
       d="m 4489.9604,3319.9092 0,-91.7857"
       id="path3826" />
    <path
       style="fill:none;stroke:#000000;stroke-width:3;stroke-miterlimit:4;stroke-opacity:1;stroke-dasharray:none;display:inline"
       d="m 4508.8889,3319.9092 0,-92.1429"
       id="path3828" />
    <path
       style="fill:none;stroke:#000000;stroke-width:3;stroke-miterlimit:4;stroke-opacity:1;stroke-dasharray:none;display:inline"
       d="m 4527.8175,3320.6235 0,-92.5"
       id="path3830" />
    <path
       style="fill:none;stroke:#000000;stroke-width:4;stroke-miterlimit:4;stroke-opacity:1;stroke-dasharray:none"
       d="m 4539.4555,3355.4153 0,-36.1685"
       id="path3649" />
    <path
       style="fill:none;stroke:#000000;stroke-width:4;stroke-miterlimit:4;stroke-opacity:1;stroke-dasharray:none"
       d="m 4538.821,3227.8739 0,-204.9544"
       id="path3651" />
    <path
       style="fill:none;stroke:#000000;stroke-width:4;stroke-miterlimit:4;stroke-opacity:1;stroke-dasharray:none"
       d="m 3450.5953,2293.84 0,-99.9391 m 0,562.1971 0,-408.3226"
       id="path3653"
       sodipodi:nodetypes="cccc" />
    <path
       style="fill:none;stroke:#000000;stroke-width:4;stroke-miterlimit:4;stroke-opacity:1;stroke-dasharray:none"
       d="m 3871.9259,2285.5911 0,-92.642 m 0,562.1971 0,-402.2945"
       id="path3655"
       sodipodi:nodetypes="cccc" />
    <path
       style="fill:none;stroke:#000000;stroke-width:4;stroke-miterlimit:4;stroke-opacity:1;stroke-dasharray:none"
       d="m 4135.892,2755.1462 0,-563.4661"
       id="path3657" />
    <path
       style="fill:none;stroke:#000000;stroke-width:4;stroke-miterlimit:4;stroke-opacity:1;stroke-dasharray:none"
       d="m 4478.5403,2267.8241 0,-73.6059 m 0,560.928 0,-432.7521"
       id="path3659"
       sodipodi:nodetypes="cccc" />
    <path
       style="fill:none;stroke:#000000;stroke-width:3.86054468;stroke-miterlimit:4;stroke-opacity:1;stroke-dasharray:none;display:inline"
       d="m 5119.6081,3314.4602 -310.1102,0 0,75.8229"
       id="path3734" />
    <path
       style="fill:none;stroke:#000000;stroke-width:3.60846949;stroke-miterlimit:4;stroke-opacity:1;stroke-dasharray:none;display:inline"
       d="m 4896.5728,3382.3017 143.583,0"
       id="path3764" />
    <path
       style="fill:none;stroke:#000000;stroke-width:2.89540863;stroke-miterlimit:4;stroke-opacity:1;stroke-dasharray:none;display:inline"
       d="m 4897.3863,3440.8316 0,-126.3714"
       id="path3766" />
    <path
       style="fill:none;stroke:#000000;stroke-width:2.89540863;stroke-miterlimit:4;stroke-opacity:1;stroke-dasharray:none;display:inline"
       d="m 4913.1061,3442.1618 0,-128.3667"
       id="path3768" />
    <path
       style="fill:none;stroke:#000000;stroke-width:2.89540863;stroke-miterlimit:4;stroke-opacity:1;stroke-dasharray:none;display:inline"
       d="m 4928.1115,3441.4967 0,-125.0411"
       id="path3770" />
    <path
       style="fill:none;stroke:#000000;stroke-width:2.89540863;stroke-miterlimit:4;stroke-opacity:1;stroke-dasharray:none;display:inline"
       d="m 4946.6895,3443.492 0,-130.362"
       id="path3772" />
    <path
       style="fill:none;stroke:#000000;stroke-width:2.89540863;stroke-miterlimit:4;stroke-opacity:1;stroke-dasharray:none;display:inline"
       d="m 4962.4093,3442.827 0,-127.7016"
       id="path3774" />
    <path
       style="fill:none;stroke:#000000;stroke-width:2.89540863;stroke-miterlimit:4;stroke-opacity:1;stroke-dasharray:none;display:inline"
       d="m 4978.1292,3442.1618 0,-128.3667"
       id="path3776" />
    <path
       style="fill:none;stroke:#000000;stroke-width:2.89540863;stroke-miterlimit:4;stroke-opacity:1;stroke-dasharray:none;display:inline"
       d="m 4993.1345,3311.7998 0,130.362 0,-128.3667"
       id="path3778" />
    <path
       style="fill:none;stroke:#000000;stroke-width:2.89540863;stroke-miterlimit:4;stroke-opacity:1;stroke-dasharray:none;display:inline"
       d="m 5008.1399,3442.1618 0,-127.7016"
       id="path3780" />
    <path
       style="fill:none;stroke:#000000;stroke-width:2.89540863;stroke-miterlimit:4;stroke-opacity:1;stroke-dasharray:none;display:inline"
       d="m 5022.4306,3440.8316 0,-125.7062"
       id="path3782" />
    <path
       style="fill:none;stroke:#000000;stroke-width:2.89540863;stroke-miterlimit:4;stroke-opacity:1;stroke-dasharray:none;display:inline"
       d="m 5038.8651,3312.465 0,128.3666 0,-126.3714"
       id="path3784" />
    <path
       style="fill:none;stroke:#000000;stroke-width:4;stroke-miterlimit:4;stroke-opacity:1;stroke-dasharray:none"
       d="m 872.48411,4050.8644 -119.9269,0"
       id="path3716" />
    <path
       style="fill:none;stroke:#000000;stroke-width:3;stroke-miterlimit:4;stroke-opacity:1;stroke-dasharray:none"
       d="m 785.87024,2931.5466 272.21506,159.268"
       id="path3718" />
    <path
       style="fill:none;stroke:#000000;stroke-width:3;stroke-miterlimit:4;stroke-opacity:1;stroke-dasharray:none"
       d="M 1056.8162,2932.1811 785.55297,3090.4973"
       id="path4492" />
    <path
       style="fill:none;stroke:#000000;stroke-width:3;stroke-miterlimit:4;stroke-opacity:1;stroke-dasharray:none"
       d="M 452.73994,2125.6886 613.27701,1951.509"
       id="path4494" />
    <path
       style="fill:none;stroke:#000000;stroke-width:3;stroke-miterlimit:4;stroke-opacity:1;stroke-dasharray:none"
       d="m 453.69174,1952.1435 161.17161,175.4487"
       id="path4496" />
    <path
       style="fill:none;stroke:#000000;stroke-width:3.98193121;stroke-miterlimit:4;stroke-opacity:1;stroke-dasharray:none;display:inline"
       d="m 450.57782,1884.5947 175.01386,0"
       id="path4020-7" />
    <path
       style="fill:none;stroke:#000000;stroke-width:2.98644829;stroke-miterlimit:4;stroke-opacity:1;stroke-dasharray:none;display:inline"
       d="m 480.08016,1816.6467 0,133.4186"
       id="path4022-4" />
    <path
       style="fill:none;stroke:#000000;stroke-width:2.98644829;stroke-miterlimit:4;stroke-opacity:1;stroke-dasharray:none;display:inline"
       d="m 494.72422,1815.4965 0,133.4188"
       id="path4022-1-0" />
    <path
       style="fill:none;stroke:#000000;stroke-width:2.98644829;stroke-miterlimit:4;stroke-opacity:1;stroke-dasharray:none;display:inline"
       d="m 510.08253,1815.5849 0,133.4188"
       id="path4022-1-7-9" />
    <path
       style="fill:none;stroke:#000000;stroke-width:2.98644829;stroke-miterlimit:4;stroke-opacity:1;stroke-dasharray:none;display:inline"
       d="m 524.72659,1816.8235 0,133.4188"
       id="path4022-1-7-0-4" />
    <path
       style="fill:none;stroke:#000000;stroke-width:2.98644829;stroke-miterlimit:4;stroke-opacity:1;stroke-dasharray:none;display:inline"
       d="m 540.44214,1816.4697 0,133.4187"
       id="path4022-1-7-4-8" />
    <path
       style="fill:none;stroke:#000000;stroke-width:2.98644829;stroke-miterlimit:4;stroke-opacity:1;stroke-dasharray:none;display:inline"
       d="m 557.44338,1816.1157 0,133.4188"
       id="path4022-1-7-8-8" />
    <path
       style="fill:none;stroke:#000000;stroke-width:2.98644829;stroke-miterlimit:4;stroke-opacity:1;stroke-dasharray:none;display:inline"
       d="m 573.65897,1816.8235 0,133.4188"
       id="path4022-1-7-45-2" />
    <path
       style="fill:none;stroke:#000000;stroke-width:2.98644829;stroke-miterlimit:4;stroke-opacity:1;stroke-dasharray:none;display:inline"
       d="m 589.58883,1817.1775 0,133.4188"
       id="path4022-1-7-1-4" />
    <path
       style="fill:none;stroke:#000000;stroke-width:2.98644829;stroke-miterlimit:4;stroke-opacity:1;stroke-dasharray:none;display:inline"
       d="m 606.73308,1818.947 0,133.4187"
       id="path4022-1-7-11-5" />
    <path
       style="fill:none;stroke:#000000;stroke-width:2.98644829;stroke-miterlimit:4;stroke-opacity:1;stroke-dasharray:none;display:inline"
       d="m 623.80574,1817.1775 0,133.4188"
       id="path4022-1-7-7-5" />
    <path
       style="fill:none;stroke:#000000;stroke-width:2.98644829;stroke-miterlimit:4;stroke-opacity:1;stroke-dasharray:none;display:inline"
       d="m 464.1503,1817.1775 0,133.4188"
       id="path4022-1-7-14-1" />
    <path
       style="fill:none;stroke:#000000;stroke-width:4.15263844;stroke-miterlimit:4;stroke-opacity:1;stroke-dasharray:none;display:inline"
       d="m 883.29274,3972.8074 161.12846,0"
       id="path4020-7-9" />
    <path
       style="fill:none;stroke:#000000;stroke-width:3.24346471;stroke-miterlimit:4;stroke-opacity:1;stroke-dasharray:none;display:inline"
       d="m 898.95961,3892.5404 0,157.6076"
       id="path4022-4-4" />
    <path
       style="fill:none;stroke:#000000;stroke-width:3.24346471;stroke-miterlimit:4;stroke-opacity:1;stroke-dasharray:none;display:inline"
       d="m 913.58169,3891.1817 0,157.6077"
       id="path4022-1-0-8" />
    <path
       style="fill:none;stroke:#000000;stroke-width:3.24346471;stroke-miterlimit:4;stroke-opacity:1;stroke-dasharray:none;display:inline"
       d="m 928.91694,3891.2861 0,157.6077"
       id="path4022-1-7-9-8" />
    <path
       style="fill:none;stroke:#000000;stroke-width:3.24346471;stroke-miterlimit:4;stroke-opacity:1;stroke-dasharray:none;display:inline"
       d="m 943.53901,3892.7493 0,157.6077"
       id="path4022-1-7-0-4-2" />
    <path
       style="fill:none;stroke:#000000;stroke-width:3.24346471;stroke-miterlimit:4;stroke-opacity:1;stroke-dasharray:none;display:inline"
       d="m 959.23097,3892.3313 0,157.6078"
       id="path4022-1-7-4-8-4" />
    <path
       style="fill:none;stroke:#000000;stroke-width:3.24346471;stroke-miterlimit:4;stroke-opacity:1;stroke-dasharray:none;display:inline"
       d="m 976.20669,3891.9132 0,157.6077"
       id="path4022-1-7-8-8-5" />
    <path
       style="fill:none;stroke:#000000;stroke-width:3.24346471;stroke-miterlimit:4;stroke-opacity:1;stroke-dasharray:none;display:inline"
       d="m 992.39793,3892.7493 0,157.6077"
       id="path4022-1-7-45-2-5" />
    <path
       style="fill:none;stroke:#000000;stroke-width:3.24346471;stroke-miterlimit:4;stroke-opacity:1;stroke-dasharray:none;display:inline"
       d="m 1008.3039,3893.1675 0,157.6077"
       id="path4022-1-7-1-4-1" />
    <path
       style="fill:none;stroke:#000000;stroke-width:3.24346471;stroke-miterlimit:4;stroke-opacity:1;stroke-dasharray:none;display:inline"
       d="m 1025.4224,3895.2577 0,157.6078"
       id="path4022-1-7-11-5-7" />
    <path
       style="fill:none;stroke:#000000;stroke-width:3.24346471;stroke-miterlimit:4;stroke-opacity:1;stroke-dasharray:none;display:inline"
       d="m 1042.4694,3893.1675 0,157.6077"
       id="path4022-1-7-7-5-1" />
    <path
       style="fill:none;stroke:#000000;stroke-width:3.24346471;stroke-miterlimit:4;stroke-opacity:1;stroke-dasharray:none;display:inline"
       d="m 883.05366,3893.1675 0,157.6077"
       id="path4022-1-7-14-1-1" />
    <path
       style="fill:none;stroke:#000000;stroke-width:4;stroke-miterlimit:4;stroke-opacity:1;stroke-dasharray:none"
       d="m 1058.4025,3004.518 95.1801,0"
       id="path4584" />
  </g>
</svg>
